<?xml version="1.0" encoding="utf-8"?>
<!-- Generator: Adobe Illustrator 21.0.2, SVG Export Plug-In . SVG Version: 6.00 Build 0)  -->
<svg version="1.1" id="Layer_1" xmlns="http://www.w3.org/2000/svg" xmlns:xlink="http://www.w3.org/1999/xlink" x="0px" y="0px"
	 viewBox="0 0 229.77 197" style="enable-background:new 0 0 229.77 197;" xml:space="preserve">
<g>
	<linearGradient id="SVGID_1_" gradientUnits="userSpaceOnUse" x1="30.04" y1="129.155" x2="31.93" y2="129.155">
		<stop  offset="0" style="stop-color:#03BEC9"/>
		<stop  offset="1" style="stop-color:#037C9E"/>
	</linearGradient>
	<path style="fill:url(#SVGID_1_);" d="M31.93,128.94c-0.65,0.07-1.29,0.21-1.89,0.43L31.93,128.94z"/>
</g>
<g>
	<linearGradient id="SVGID_2_" gradientUnits="userSpaceOnUse" x1="39.59" y1="150.815" x2="41.13" y2="150.815">
		<stop  offset="0" style="stop-color:#03BEC9"/>
		<stop  offset="1" style="stop-color:#037C9E"/>
	</linearGradient>
	<path style="fill:url(#SVGID_2_);" d="M41.13,150.15c-0.56,0.37-1.08,0.82-1.54,1.33L41.13,150.15z"/>
</g>
<g>
	<path style="fill:#C30362;" d="M142.37,41.59c4.6-3.45,9.46-4.3,14.86-1.72c4.87,2.32,9.45,1.57,13.43-2.19
		c0.17-0.16,0.38-0.28,0.87-0.64c-0.24,0.71-0.33,1.17-0.52,1.56c-2.47,4.96-5.87,7.51-11.27,7.01c-2.43-0.22-4.81-0.89-7.22-1.31
		c-0.48-0.08-1.11-0.15-1.47,0.08c-4.06,2.68-7.09,6.27-9.23,10.63c-0.17,0.34-0.36,0.67-0.54,1c0.18,0.04,0.36,0.08,0.54,0.11
		c1.67-0.81,3.31-1.69,5.02-2.4c2.34-0.96,4.77-1.47,7.33-1.09c3.59,0.54,6.78,2.78,6.65,6.4c-0.2,5.78,0.32,10.74-0.31,16.09
		c-0.12,1-0.25,2-0.72,3.04c-0.13-0.53-0.24-1.07-0.4-1.6c-1.28-4.22-2.32-8.53-3.93-12.62c-1.58-4-4.39-4.9-8.31-3.03
		c-2.77,1.32-5.33,3.07-8.07,4.46c-1.48,0.75-3.1,1.33-4.72,1.68c-2.82,0.61-4.11-0.39-4.63-3.26c-0.44-2.43-0.08-4.79,0.69-7.1
		C130.59,56.24,133.04,46.42,142.37,41.59z"/>
	
		<ellipse transform="matrix(0.9995 -0.0313 0.0313 0.9995 -0.9296 4.6161)" style="fill:#C30362;" cx="146.83" cy="31.97" rx="6.82" ry="5.87"/>
	<g>
		<g>
			<path style="fill:#FFAB00;" d="M120.29,88.67c-0.43,0.01-0.86-0.16-1.15-0.52c-0.5-0.61-0.41-1.51,0.2-2.01l23.27-19.12
				c0.61-0.5,1.51-0.41,2.01,0.2c0.5,0.61,0.41,1.51-0.2,2.01l-23.27,19.12C120.89,88.55,120.59,88.66,120.29,88.67z"/>
		</g>
		<g>
			<path style="fill:#03BEC9;" d="M117.9,81.71c0.46,0.56,1.29,0.65,1.86,0.19l3.92-3.19l-8.2-10.05l-4.94,4.03L117.9,81.71z"/>
			<path style="fill:#03BEC9;" d="M126.4,76.48l3.92-3.19c0.56-0.46,0.65-1.29,0.19-1.86l-7.36-9.03l-4.94,4.03L126.4,76.48z"/>
			<path style="fill:#03BEC9;" d="M107.16,69.6l2.17,2.65l5.46-4.45l-3-3.68l-4.44,3.62C106.78,68.2,106.7,69.03,107.16,69.6z"/>
			<path style="fill:#03BEC9;" d="M118.94,58.28l-4.43,3.62l3,3.68l5.46-4.45l-2.17-2.65C120.33,57.91,119.5,57.82,118.94,58.28z"/>
			<path style="fill:#FFAB00;" d="M113.07,61.88c-0.06-0.08-0.18-0.09-0.26-0.03l-0.73,0.6c-0.08,0.06-0.09,0.18-0.03,0.26
				l12.48,15.3l1.02-0.83L113.07,61.88z"/>
		</g>
	</g>
	<g>
		<g>
			<polygon points="138.46,89.98 138.46,89.98 138.46,89.98 			"/>
			<path d="M138.96,87.83l-0.12-3.76c-0.67,0.07-1.3,0.28-1.85,0.59L138.96,87.83z"/>
			<path d="M139.14,93.81l-0.11-3.51l-1.66,3.09C137.92,93.63,138.51,93.78,139.14,93.81z"/>
			<polygon points="138.45,89.98 138.45,89.98 138.46,89.98 			"/>
			<path d="M134.88,87.05c-0.23,0.56-0.36,1.18-0.36,1.83l3.57-0.11L134.88,87.05z"/>
			<path d="M135.45,91.84c0.36,0.49,0.81,0.91,1.34,1.24l1.66-3.09L135.45,91.84z"/>
			<path d="M136.44,85.02c-0.52,0.39-0.94,0.87-1.27,1.43l3.22,1.73L136.44,85.02z"/>
			<path d="M134.55,89.53c0.07,0.63,0.26,1.23,0.55,1.75l3-1.86L134.55,89.53z"/>
			<polygon points="140.19,88.13 140.19,88.13 140.19,88.13 			"/>
			<path d="M140.54,88.69l3.73-0.12c-0.05-0.68-0.23-1.31-0.52-1.88L140.54,88.69z"/>
			<path d="M143.8,91.08c0.27-0.56,0.44-1.19,0.48-1.85l-3.71,0.12L143.8,91.08z"/>
			<path d="M143.42,86.13c-0.38-0.55-0.86-1.01-1.42-1.36l-1.8,3.36L143.42,86.13z"/>
			<path d="M139.09,78.99c-5.48,0.18-9.77,4.75-9.6,10.23c0.17,5.47,4.74,9.77,10.22,9.6c5.47-0.18,9.77-4.75,9.6-10.23
				C149.14,83.12,144.56,78.82,139.09,78.99z M146.18,92.36c-0.1,0.2-0.21,0.39-0.32,0.57c-0.59,0.96-1.39,1.74-2.31,2.32
				c-0.18,0.12-0.37,0.23-0.57,0.33c-0.96,0.5-2.02,0.8-3.09,0.87c-0.13,0-0.27,0.01-0.4,0.01h-0.26c-1.11-0.03-2.17-0.29-3.11-0.73
				c-0.2-0.09-0.39-0.2-0.58-0.31c-0.94-0.54-1.75-1.28-2.37-2.16c-0.12-0.18-0.24-0.37-0.35-0.56c-0.52-0.91-0.86-1.95-0.97-3.08
				c-0.01-0.15-0.02-0.31-0.03-0.47v-0.19c-0.01-1.14,0.23-2.22,0.68-3.19c0.09-0.21,0.19-0.4,0.29-0.59
				c0.55-0.97,1.31-1.81,2.23-2.45c0.18-0.13,0.36-0.25,0.55-0.36c0.95-0.54,2.02-0.89,3.18-0.99c0.15-0.01,0.3-0.02,0.44-0.03h0.22
				c1.18,0,2.29,0.26,3.28,0.73c0.2,0.1,0.39,0.2,0.58,0.31c0.98,0.57,1.82,1.37,2.45,2.31c0.12,0.18,0.24,0.37,0.34,0.57
				c0.52,0.95,0.85,2.05,0.9,3.22c0.01,0.06,0.01,0.12,0.01,0.19c0.01,0.16,0.01,0.31,0,0.46
				C146.94,90.34,146.65,91.42,146.18,92.36z"/>
			<path d="M142.15,92.99c0.52-0.35,0.97-0.81,1.32-1.34l-3.21-1.72L142.15,92.99z"/>
			<path d="M139.5,84.04l0.12,3.77l1.8-3.36C140.83,84.2,140.18,84.05,139.5,84.04z"/>
			<path d="M139.8,93.81c0.64-0.05,1.24-0.21,1.78-0.48l-1.89-3.05L139.8,93.81z"/>
		</g>
	</g>
	<g>
		<g>
			<polygon points="174.76,56.09 174.76,56.09 174.76,56.09 			"/>
			<path d="M175.45,59.92l-0.11-3.51l-1.66,3.09C174.22,59.73,174.82,59.88,175.45,59.92z"/>
			<path d="M175.26,53.94l-0.12-3.76c-0.67,0.07-1.3,0.28-1.85,0.59L175.26,53.94z"/>
			<polygon points="174.76,56.08 174.76,56.09 174.76,56.08 			"/>
			<path d="M172.74,51.13c-0.52,0.39-0.94,0.87-1.27,1.43l3.22,1.73L172.74,51.13z"/>
			<path d="M171.19,53.15c-0.23,0.56-0.36,1.18-0.36,1.83l3.57-0.11L171.19,53.15z"/>
			<path d="M170.86,55.64c0.07,0.63,0.26,1.23,0.55,1.75l3-1.86L170.86,55.64z"/>
			<path d="M171.76,57.95c0.36,0.49,0.81,0.91,1.34,1.24l1.66-3.09L171.76,57.95z"/>
			<path d="M179.73,52.23c-0.38-0.55-0.86-1.01-1.42-1.36l-1.8,3.36L179.73,52.23z"/>
			<path d="M176.85,54.79l3.73-0.12c-0.05-0.68-0.23-1.31-0.52-1.88L176.85,54.79z"/>
			<path d="M180.1,57.18c0.27-0.56,0.44-1.19,0.48-1.85l-3.71,0.12L180.1,57.18z"/>
			<path d="M175.8,50.15l0.12,3.77l1.8-3.36C177.13,50.31,176.49,50.16,175.8,50.15z"/>
			<path d="M175.39,45.1c-5.47,0.17-9.77,4.75-9.6,10.22c0.17,5.48,4.75,9.77,10.22,9.6c5.48-0.17,9.77-4.75,9.6-10.22
				C185.44,49.23,180.87,44.93,175.39,45.1z M182.49,58.47c-0.1,0.19-0.21,0.38-0.33,0.57c-0.59,0.95-1.39,1.73-2.3,2.32
				c-0.19,0.12-0.38,0.22-0.57,0.33c-0.96,0.5-2.02,0.8-3.1,0.86c-0.13,0.01-0.26,0.01-0.39,0.02c-0.09,0-0.18,0-0.27-0.01
				c-1.11-0.02-2.16-0.28-3.11-0.72c-0.19-0.1-0.39-0.2-0.58-0.31c-0.94-0.54-1.74-1.28-2.36-2.17c-0.13-0.18-0.24-0.36-0.35-0.55
				c-0.53-0.92-0.87-1.96-0.97-3.09c-0.02-0.15-0.03-0.3-0.03-0.46c0-0.07-0.01-0.13-0.01-0.19c0-1.14,0.24-2.23,0.68-3.2
				c0.09-0.2,0.19-0.39,0.3-0.59c0.55-0.97,1.31-1.81,2.22-2.45c0.18-0.12,0.37-0.24,0.56-0.35c0.94-0.55,2.02-0.9,3.18-1
				c0.14-0.01,0.29-0.02,0.44-0.02h0.22c1.17-0.01,2.28,0.26,3.28,0.73c0.19,0.09,0.39,0.2,0.58,0.31c0.98,0.57,1.81,1.36,2.44,2.31
				c0.13,0.18,0.24,0.37,0.35,0.56c0.52,0.96,0.84,2.05,0.9,3.22c0,0.07,0,0.13,0.01,0.19v0.47
				C183.24,56.45,182.96,57.53,182.49,58.47z"/>
			<path d="M178.46,59.1c0.52-0.35,0.97-0.81,1.32-1.34l-3.21-1.72L178.46,59.1z"/>
			<polygon points="176.5,54.23 176.5,54.24 176.5,54.24 			"/>
			<path d="M176.11,59.91c0.64-0.05,1.24-0.21,1.78-0.48L176,56.38L176.11,59.91z"/>
		</g>
	</g>
</g>
<g>
	<path style="fill:#8B7B11;" d="M153.34,111.06c0,0-2.64-6.53-1.28-10.26c0.92-3.38,3.29-6.27,3.29-6.27s3.28-3.67,5.44-5.05
		c0.29-0.19,0.55-0.36,0.89-0.4c0.09,0.92-1.25,2.07-1.66,2.87c-0.55,1.11-0.85,2.35-0.94,3.58c-0.28,3.71,1.87,7.27,3,10.76
		c0.09,0.28,0.18,0.57,0.27,0.85c-0.49,0.12-0.94,0.37-1.31,0.73c-0.31,0.31-0.56,0.67-0.72,1.08c-0.19,0.49-0.26,0.93-0.2,1.36
		l0.17,1.27c-0.09,0.07-0.19,0.16-0.28,0.25c-0.35,0.34-0.59,0.74-0.7,1.18c-0.5-0.35-1.02-0.54-1.55-0.57l-0.19-0.01
		c-0.76,0-1.47,0.3-2.02,0.83c-0.31,0.31-0.55,0.67-0.71,1.08c-0.06,0.13-0.1,0.26-0.13,0.38
		C153.79,112.03,153.34,111.06,153.34,111.06z"/>
	<path style="fill:#8B7B11;" d="M156.33,117.52l-0.67,0.13c-0.1-0.33-0.2-0.63-0.3-0.93c0.27,0.13,0.51,0.3,0.72,0.51
		C156.17,117.32,156.25,117.42,156.33,117.52z"/>
	<path style="fill:#8B7B11;" d="M165.21,120.18c0,0.18,0,0.37-0.01,0.57c-0.03,1.44-0.24,2.95-0.75,4.33
		c-1.29,4.92-2.24,6.51-4.05,9.06c-1.99,2.79-4.63,4.79-4.63,4.79c-3.9,2.86-7.87,4.79-11.89,5.96c0-0.34,0.14-0.74,0.48-0.84
		c1.69-0.52,7.1-3.62,8.1-5.12c0,0,3.67-3.09,4.61-8.4c0,0,0.25-1.09,0.32-2.86c0.27-0.15,0.56-0.35,0.84-0.63l2.3-2.27
		c0.98-0.96,1.44-2.12,1.32-3.31c0.08,0.02,0.15,0.02,0.23,0.03c0.1,0.01,0.2,0.01,0.29,0.01c0.93,0,1.78-0.34,2.47-0.98
		c0.03-0.02,0.07-0.05,0.1-0.08L165.21,120.18z"/>
	<path style="fill:#C30362;" d="M183.36,101.37c0.02,5.16-1.8,10.39-4.76,14.57c-1.99,2.8-4.63,4.79-4.63,4.79
		c-3.01,2.32-6.37,4.11-9.46,5.08c0-0.4,0.19-0.78,0.51-1.03c0.39-0.3,0.91-0.55,1.24-0.71c1.31-0.63,2.8-1.72,4.1-3.03
		c0.16-0.16,0.31-0.31,0.47-0.46c0.73-0.68,3.62-3.62,4.44-8.25c0,0,0.2-0.88,0.29-2.34c0.2-0.22,0.37-0.46,0.53-0.71
		c0.31-0.17,0.61-0.39,0.91-0.69l1.61-1.59c0.64-0.63,1.02-1.39,1.1-2.24h0.21c0.45,0,1.11-0.13,1.75-0.76
		c0.69-0.68,0.95-1.59,0.69-2.44c-0.13-0.45-0.4-0.88-0.81-1.3l-3.96-4.03c-0.68-0.7-1.42-1.07-2.2-1.12l-0.18-0.01
		c-0.76,0-1.47,0.3-2.01,0.82c-0.14,0.13-0.26,0.27-0.36,0.42c-0.87-2.56-1.3-3.48-1.3-3.48s-2.64-6.53-1.28-10.26
		c0.91-3.38,3.29-6.27,3.29-6.27s3.28-3.67,5.44-5.05c2.15-1.38,0.18,1,0.18,1c-2.52,3.6-2.01,7.47-0.6,11.43
		c0.62,1.75,1.22,3.49,1.81,5.24c-0.12,0.18-0.22,0.37-0.3,0.56c-0.22,0.52-0.28,1.02-0.19,1.49l0.38,1.97l1.33-0.26
		c0.18,0.55,0.35,1.09,0.51,1.64c-0.27,0.13-0.51,0.31-0.73,0.52c-0.6,0.59-0.91,1.39-0.87,2.28c0.03,0.6,0.2,1.22,0.51,1.82
		c0.27,0.53,0.62,1.01,1.03,1.43C182.44,100.8,182.88,101.13,183.36,101.37z"/>
	<path style="fill:#FFAB00;" d="M194.15,91.44c0.05,0.05,0.09,0.11,0.13,0.17l-0.15,0.15C194.13,91.66,194.14,91.55,194.15,91.44z"
		/>
	<path style="fill:#FFAB00;" d="M197.16,65.12c0.76,2.13,1.49,4.25,2.19,6.38c-0.06,0-0.13-0.01-0.2-0.01
		c-0.7,0-1.36,0.27-1.87,0.77c-0.21,0.2-0.38,0.44-0.51,0.69c-0.26,0.13-0.49,0.3-0.69,0.5c-0.51,0.49-0.79,1.16-0.8,1.87
		c-0.01,0.58,0.17,1.13,0.5,1.59c-0.38,0.22-0.75,0.51-1.11,0.86c-0.57,0.56-0.96,1.13-1.19,1.74c-0.14,0.36-0.25,0.86-0.2,1.47
		c-0.26,0-0.51,0.03-0.76,0.08c-1.6-5.12-2.38-6.8-2.38-6.8s-2.64-6.53-1.28-10.25c0.91-3.39,3.28-6.28,3.28-6.28
		s3.28-3.67,5.44-5.05c2.16-1.38,0.19,1.01,0.19,1.01C195.25,57.28,195.76,61.15,197.16,65.12z"/>
	<path style="fill:#FFAB00;" d="M201.51,87.33c-0.7,3.6-2.22,7.06-4.32,10.01c-1.98,2.8-4.63,4.8-4.63,4.8
		c-3,2.31-6.37,4.1-9.45,5.08c0-0.41,0.18-0.79,0.5-1.03c0.4-0.31,0.92-0.56,1.25-0.72c1.31-0.63,2.8-1.71,4.1-3.03
		c0.15-0.15,0.31-0.31,0.47-0.46c0.63-0.59,2.88-2.87,4-6.48c0.21-0.11,0.39-0.25,0.56-0.42c0.52-0.51,0.8-1.18,0.8-1.92
		c-0.01-0.57-0.19-1.11-0.51-1.55l2.73-2.68c0.74-0.74,1.11-1.46,1.27-2.11l1.94,0.48c0.22,0.06,0.45,0.08,0.68,0.08
		C201.1,87.38,201.3,87.36,201.51,87.33z"/>
	<circle style="fill:#010101;" cx="186.54" cy="123.16" r="4.64"/>
	<circle style="fill:#010101;" cx="175.65" cy="133.55" r="4.64"/>
	<g>
		<g>
			<g>
				
					<linearGradient id="SVGID_3_" gradientUnits="userSpaceOnUse" x1="3.6018" y1="297.8479" x2="19.1328" y2="297.8479" gradientTransform="matrix(0.9153 0.4028 -0.4028 0.9153 170.7 -104.6845)">
					<stop  offset="0" style="stop-color:#4D214D"/>
					<stop  offset="0.9901" style="stop-color:#A63071"/>
				</linearGradient>
				<path style="fill:url(#SVGID_3_);" d="M71.65,175.01c-0.9,2.05-2.55,3.62-4.63,4.43c-2.09,0.81-4.36,0.76-6.41-0.14
					c-1.97-0.87-3.51-2.43-4.34-4.41c-0.13-0.73-0.16-1.49-0.09-2.25c0.08-0.87,0.3-1.73,0.67-2.57c0.93-2.12,2.63-3.66,4.63-4.43
					c-1.49,0.62-2.75,1.79-3.45,3.38c-1.44,3.28,0.05,7.12,3.33,8.56c0.52,0.23,1.06,0.38,1.59,0.47c0.55,0.09,1.1,0.1,1.64,0.05
					c3.01-0.21,5.8-2.04,7.1-4.98c0.32-0.72,0.53-1.46,0.63-2.21C72.46,172.3,72.23,173.7,71.65,175.01z"/>
				
					<linearGradient id="SVGID_4_" gradientUnits="userSpaceOnUse" x1="8.0446" y1="294.7576" x2="24.0801" y2="294.7576" gradientTransform="matrix(0.9153 0.4028 -0.4028 0.9153 170.7 -104.6845)">
					<stop  offset="9.900990e-03" style="stop-color:#A63071"/>
					<stop  offset="1" style="stop-color:#4D214D"/>
				</linearGradient>
				<path style="fill:url(#SVGID_4_);" d="M71.7,173.12c-1.3,2.95-4.09,4.78-7.1,4.98c2.26-0.22,4.35-1.62,5.33-3.85
					c1.44-3.28-0.05-7.12-3.33-8.56c-1.23-0.54-2.54-0.67-3.77-0.45c0,0,0,0,0,0c-0.46,0.08-0.91,0.22-1.34,0.39c0,0,0,0-0.01,0
					c-2,0.78-3.7,2.32-4.63,4.43c-0.37,0.84-0.59,1.71-0.67,2.57c-0.07,0.76-0.04,1.51,0.09,2.25c-0.03-0.07-0.06-0.15-0.09-0.22
					c-0.53-1.36-0.69-2.81-0.49-4.22c0.11-0.75,0.32-1.48,0.63-2.19c0.9-2.05,2.55-3.62,4.63-4.43c2.09-0.81,4.36-0.76,6.41,0.14
					c2.05,0.9,3.62,2.55,4.43,4.63c0.2,0.52,0.35,1.06,0.45,1.6c0.04,0.24,0.07,0.47,0.09,0.71
					C72.23,171.66,72.02,172.4,71.7,173.12z"/>
			</g>
			<g>
				<g>
					<path style="fill:#6E204B;" d="M67.71,173.4c-0.08-0.2-0.16-0.4-0.25-0.59c-0.38-0.88-0.86-1.71-1.52-2.41
						c-0.92-0.97-2.04-1.52-3.39-1.55h-0.1c1.07,1.74,0.12,4.02-1.92,4.45c0.02,0.02,0.03,0.04,0.05,0.06
						c0.41,0.44,0.89,0.8,1.43,1.06c0.81,0.38,1.66,0.5,2.55,0.44c0.92-0.06,1.8-0.31,2.65-0.65c0.06-0.02,0.13-0.05,0.2-0.08
						c0.26,0.46,0.51,0.9,0.76,1.36l1.08-2.45C68.73,173.16,68.22,173.28,67.71,173.4z M64.72,173.19l-1.01,1.32
						c-0.05,0.06-0.13,0.08-0.19,0.05c-0.01,0-0.02-0.01-0.03-0.02c-0.32-0.23-0.64-0.42-0.98-0.57c-0.31-0.13-0.62-0.23-0.95-0.3
						c-0.01,0-0.02-0.01-0.03-0.01c-0.06-0.03-0.1-0.1-0.09-0.17c0.01-0.07,0.06-0.12,0.13-0.13l3.01-0.43c0.03,0,0.06,0,0.08,0.01
						c0.05,0.02,0.08,0.06,0.09,0.11S64.75,173.15,64.72,173.19z"/>
					<path style="fill:#6E204B;" d="M61.33,169.02c-0.03-0.02-0.08-0.05-0.12-0.04c-0.84,0.18-1.62,0.51-2.35,0.96v0.04
						c0.19,0.83,0.5,1.6,0.93,2.33c0.02,0.03,0.07,0.06,0.11,0.06c0.78,0.05,1.55-0.44,1.87-1.18S61.91,169.56,61.33,169.02z
						 M60.83,170.29c-0.11,0.24-0.37,0.34-0.6,0.24c-0.23-0.11-0.33-0.37-0.23-0.6c0.1-0.22,0.37-0.33,0.59-0.23
						C60.82,169.8,60.93,170.06,60.83,170.29z"/>
					<path style="fill:#6E204B;" d="M63.34,168.77c0.74,0.15,1.4,0.47,1.98,0.9c0.01,0.01,0.02,0.01,0.03,0l1.02-1.33
						c0.01-0.02,0-0.04-0.02-0.04l-3,0.42C63.32,168.73,63.32,168.76,63.34,168.77z"/>
					<path style="fill:#6E204B;" d="M64.6,173.07l-3,0.42c-0.03,0-0.03,0.04,0,0.04c0.74,0.15,1.4,0.47,1.98,0.9
						c0.01,0.01,0.02,0.01,0.03,0l1.02-1.33C64.63,173.09,64.62,173.06,64.6,173.07z"/>
				</g>
			</g>
		</g>
		<g>
			<g>
				
					<linearGradient id="SVGID_5_" gradientUnits="userSpaceOnUse" x1="-12.9816" y1="282.7731" x2="2.5493" y2="282.7731" gradientTransform="matrix(-0.1406 -0.9901 0.9901 -0.1406 -232.8126 193.1338)">
					<stop  offset="0" style="stop-color:#695F54"/>
					<stop  offset="1" style="stop-color:#86895F"/>
				</linearGradient>
				<path style="fill:url(#SVGID_5_);" d="M44.56,148.96c2.21-0.31,4.42,0.25,6.21,1.6c1.79,1.34,2.95,3.3,3.26,5.52
					c0.3,2.14-0.21,4.26-1.45,6.01c-0.56,0.5-1.18,0.92-1.86,1.26c-0.78,0.39-1.63,0.66-2.54,0.79c-2.29,0.33-4.5-0.31-6.21-1.6
					c1.31,0.94,2.97,1.39,4.69,1.15c3.55-0.5,6.02-3.8,5.52-7.35c-0.08-0.56-0.23-1.1-0.44-1.6c-0.22-0.51-0.49-0.99-0.83-1.42
					c-1.76-2.44-4.79-3.85-7.98-3.4c-0.78,0.11-1.52,0.33-2.21,0.63C41.83,149.71,43.14,149.16,44.56,148.96z"/>
				
					<linearGradient id="SVGID_6_" gradientUnits="userSpaceOnUse" x1="-12.0146" y1="279.6828" x2="4.0209" y2="279.6828" gradientTransform="matrix(-0.1406 -0.9901 0.9901 -0.1406 -232.8126 193.1338)">
					<stop  offset="0" style="stop-color:#86895F"/>
					<stop  offset="1" style="stop-color:#695F54"/>
				</linearGradient>
				<path style="fill:url(#SVGID_6_);" d="M42.92,149.92c3.19-0.45,6.22,0.96,7.98,3.4c-1.38-1.81-3.67-2.84-6.08-2.49
					c-3.55,0.5-6.02,3.8-5.52,7.35c0.19,1.33,0.77,2.51,1.61,3.44l0,0c0.31,0.35,0.66,0.66,1.04,0.93c0,0,0,0,0.01,0
					c1.71,1.29,3.92,1.92,6.21,1.6c0.91-0.13,1.76-0.4,2.54-0.79c0.68-0.34,1.31-0.76,1.86-1.26c-0.05,0.07-0.09,0.13-0.14,0.19
					c-0.88,1.17-2.02,2.07-3.32,2.64c-0.69,0.3-1.43,0.51-2.19,0.62c-2.21,0.31-4.42-0.25-6.21-1.6c-1.79-1.34-2.95-3.3-3.26-5.52
					c-0.31-2.21,0.25-4.42,1.6-6.21c0.34-0.45,0.71-0.86,1.12-1.22c0.18-0.16,0.36-0.31,0.55-0.45
					C41.4,150.24,42.14,150.03,42.92,149.92z"/>
			</g>
			<g>
				<g>
					<path style="fill:#86895F;" d="M48.11,155.79c-0.43-0.4-0.87-0.79-1.33-1.16c-0.27-0.2-0.53-0.09-0.62,0.23
						c-0.08,0.29-0.24,0.53-0.5,0.65c-0.4,0.17-0.79,0.35-1.21,0.46c-0.93,0.24-1.75,0.65-2.33,1.46c-0.16,0.21-0.29,0.42-0.41,0.64
						c-0.02,0.05-0.01,0.12,0.04,0.15c0.25,0.16,0.34,0.53,0.12,0.71c-0.27,0.21-0.37,0.52,0.06,0.87c0.3,0.24-0.02,0.64-0.16,0.79
						c-0.04,0.04-0.04,0.1-0.01,0.14c0.45,0.71,1.24,1.12,2.08,1.05c1.08-0.09,1.84-0.71,2.44-1.55c0.37-0.51,0.52-1.12,0.69-1.73
						c0.15-0.52,0.31-1.03,0.48-1.54c0.1-0.29,0.29-0.51,0.57-0.66C48.27,156.17,48.32,155.99,48.11,155.79z M43.98,161.48
						c0.82-0.13,1.81-1.04,2.27-1.7C46.06,160.67,44.56,161.75,43.98,161.48z"/>
					<path style="fill:#86895F;" d="M47.8,152.81c-0.2,0.17-0.16,0.37-0.06,0.58c0.17,0.36,0.11,0.68-0.16,0.96
						c-0.14,0.15-0.29,0.31-0.45,0.47c0.24,0.2,0.46,0.4,0.68,0.59c0.18-0.23,0.34-0.43,0.5-0.64c0.23-0.3,0.52-0.4,0.89-0.31
						c0.31,0.08,0.48-0.06,0.54-0.38c0.05-0.3-0.11-0.68-0.49-0.7c-0.26-0.02-0.42-0.16-0.51-0.41c-0.03-0.1-0.12-0.2-0.21-0.26
						C48.31,152.59,48,152.64,47.8,152.81z"/>
				</g>
			</g>
		</g>
		<path style="fill:#03BEC9;" d="M37.6,144.34c-0.02-0.04-0.05-0.09-0.07-0.13c-0.55,0.38-1.15,0.68-1.78,0.91
			c0.01,0.01,0.01,0.03,0.02,0.04c1.15,2.18,2.43,4.29,3.82,6.32l1.54-1.33C39.85,148.28,38.66,146.34,37.6,144.34z M57.56,166.27
			c-1.82-1.18-3.56-2.47-5.22-3.87c-0.01-0.01-0.03-0.02-0.04-0.03c-0.05,0.06-0.09,0.11-0.14,0.17c-0.43,0.51-0.92,0.95-1.44,1.33
			c0.02,0.02,0.05,0.04,0.07,0.06c1.78,1.52,3.64,2.94,5.58,4.24c0,0.01,0.01,0.01,0.01,0.01c0.31-0.62,0.69-1.21,1.16-1.75
			c0.03-0.04,0.07-0.08,0.1-0.11C57.61,166.3,57.59,166.29,57.56,166.27z M143.32,131.23c-2.42-7.61-7.52-11.68-9.07-12.77
			c-4.74-4.01-8.84-3.87-13.11-1.54c-4.28,2.33-6.34,7.73-5.51,12.53c0.83,4.79,4.12,8.91,8.18,11.61c3.82,2.55,5.96,4.3,7.02,8.77
			c0.67,2.82-1.23,5.75-4,8.33c-7.31,7.83-19.31,14-32.29,16.9c-0.01,0.01-0.02,0.01-0.03,0.01c0.05,0.25,0.08,0.51,0.1,0.77
			c0.02,0.16,0.02,0.32,0.03,0.48c0,0.29,0,0.59-0.03,0.88c-0.01,0.07-0.01,0.14-0.03,0.21c-0.02,0.23-0.05,0.44-0.09,0.66
			c14.32-1.09,29.3-6.3,39.68-16.28c4.94-4.74,8.22-11.4,9.82-18.15C145.04,139.18,144.44,135.19,143.32,131.23z M135.56,142.77
			c0,0-0.5-3.44-4.62-5.79c-2.08-1.19-5.8-3.56-5.8-3.56s-2.26-2.13-2.66-2.85c0,0-2.9-4.77,1.17-6.15
			c4.19-0.69,7.29,2.75,7.29,2.75s3.66,3.62,4.53,7.57C136.33,138.7,136.05,141,135.56,142.77z M78.11,174.47
			c-1.98-0.35-3.94-0.82-5.87-1.38c-0.01,0-0.03-0.01-0.04-0.01c-0.05,0.37-0.13,0.74-0.24,1.1c-0.04,0.14-0.08,0.28-0.14,0.42
			c-0.09,0.3-0.22,0.6-0.36,0.9c2.12,0.68,4.27,1.22,6.45,1.64c-0.04-0.54-0.03-1.08,0.03-1.6c0.01-0.1,0.02-0.21,0.04-0.31
			c0.01-0.09,0.02-0.18,0.04-0.27c0.03-0.16,0.07-0.33,0.11-0.49C78.12,174.47,78.12,174.47,78.11,174.47z M69.72,60.99
			c-0.28-0.41-0.83-0.55-1.3-0.38c-3.39,1.19-6.66,2.7-9.78,4.52c-19.81,11.6-31.79,35.29-29.54,58.14c0.2,2.05,0.52,4.09,0.94,6.1
			l0.29-0.07c0.01,0,0.02,0,0.02,0l1.58-0.36c-0.01-0.02-0.01-0.05-0.01-0.07c-0.52-2.35-0.86-4.73-1.04-7.14
			C29.22,100,40.91,77.8,59.76,66.88c2.99-1.73,6.13-3.17,9.38-4.31c0.45-0.15,0.78-0.57,0.76-1.04
			C69.9,61.33,69.83,61.15,69.72,60.99z"/>
		<g>
			<g>
				
					<linearGradient id="SVGID_7_" gradientUnits="userSpaceOnUse" x1="-20.4953" y1="261.3728" x2="-4.9643" y2="261.3728" gradientTransform="matrix(0.5402 0.8415 -0.8415 0.5402 258.8554 8.211)">
					<stop  offset="0" style="stop-color:#037C9E"/>
					<stop  offset="1" style="stop-color:#03BEC9"/>
				</linearGradient>
				<path style="fill:url(#SVGID_7_);" d="M37.86,144.18c-1.88,1.21-4.12,1.61-6.31,1.14c-2.19-0.48-4.05-1.78-5.26-3.66
					c-1.17-1.82-1.58-3.96-1.18-6.07c0.3-0.68,0.69-1.33,1.17-1.92c0.55-0.68,1.21-1.28,1.98-1.77c1.95-1.25,4.22-1.59,6.31-1.13
					c-1.58-0.31-3.28-0.03-4.74,0.91c-3.01,1.94-3.89,5.96-1.96,8.98c0.31,0.48,0.67,0.9,1.07,1.27c0.41,0.38,0.86,0.69,1.34,0.95
					c2.62,1.49,5.96,1.51,8.67-0.23c0.66-0.43,1.25-0.93,1.75-1.49C40.03,142.36,39.06,143.4,37.86,144.18z"/>
				
					<linearGradient id="SVGID_8_" gradientUnits="userSpaceOnUse" x1="-21.7146" y1="258.2825" x2="-5.6791" y2="258.2825" gradientTransform="matrix(0.5402 0.8415 -0.8415 0.5402 258.8554 8.211)">
					<stop  offset="0" style="stop-color:#03BEC9"/>
					<stop  offset="1" style="stop-color:#037C9E"/>
				</linearGradient>
				<path style="fill:url(#SVGID_8_);" d="M38.95,142.63c-2.71,1.74-6.05,1.72-8.67,0.23c2.01,1.07,4.52,1.05,6.57-0.26
					c3.01-1.94,3.89-5.96,1.96-8.98c-0.73-1.13-1.75-1.96-2.9-2.45l0,0c-0.43-0.18-0.88-0.32-1.33-0.41c0,0-0.01,0-0.01,0
					c-2.09-0.46-4.36-0.12-6.31,1.13c-0.77,0.5-1.44,1.1-1.98,1.77c-0.48,0.59-0.87,1.24-1.17,1.92c0.01-0.08,0.03-0.16,0.05-0.24
					c0.31-1.43,0.97-2.72,1.92-3.78c0.5-0.56,1.08-1.06,1.74-1.48c1.88-1.21,4.12-1.61,6.31-1.14c2.19,0.48,4.05,1.78,5.26,3.66
					c1.21,1.88,1.61,4.12,1.14,6.31c-0.12,0.55-0.29,1.08-0.51,1.58c-0.1,0.22-0.2,0.43-0.31,0.64
					C40.19,141.7,39.61,142.2,38.95,142.63z"/>
			</g>
			<path style="fill:#03BEC9;" d="M38.39,134.82c0.08-0.42-0.1-0.78-0.47-0.95c-0.2-0.09-0.42-0.12-0.63-0.1
				c-0.18,0.02-0.35,0.06-0.54,0.09c-0.01-0.03-0.03-0.08-0.05-0.12c-0.21-0.42-0.64-0.67-1.1-0.62c-0.31,0.04-0.55,0.15-0.63,0.49
				c-0.08,0.29-0.17,0.57-0.26,0.86c-0.57-0.13-1.12-0.09-1.65,0.14c-0.05,0.02-0.15,0.07-0.26,0.14c-0.01,0.01-0.03,0.01-0.04,0.02
				c0,0.01-0.01,0.01-0.01,0.01c-0.58,0.36-1.57,1.31-1.84,1.56c-0.44,0.4-0.88,0.87-1.21,1.26c-0.06,0.08-0.12,0.15-0.17,0.22
				c-0.4,0.49-0.76,0.99-0.99,1.58c-0.04,0.1-0.08,0.21-0.1,0.32c-0.13,0.58,0.12,0.98,0.71,1.11c0.32,0.08,0.65,0.07,0.97,0.03
				c0.57-0.06,1.13-0.19,1.68-0.37c0.21-0.06,0.42-0.13,0.63-0.21c0.11-0.02,0.47-0.15,0.74-0.25h0.01
				c0.09-0.04,0.18-0.07,0.23-0.09c0.02-0.01,0.44-0.16,0.56-0.21c0.01-0.01,0.02-0.01,0.03-0.02h0.01
				c0.47-0.24,0.93-0.47,1.37-0.72c0.47-0.28,0.8-0.69,0.98-1.21c0.06-0.17,0.11-0.35,0.16-0.54c0.39,0.14,0.79,0.16,1.2,0.15
				c0.14-0.01,0.25-0.06,0.35-0.17c0.23-0.27,0.29-0.57,0.23-0.92c-0.06-0.26-0.19-0.47-0.4-0.65c0.04-0.03,0.07-0.06,0.09-0.09
				C38.19,135.35,38.34,135.11,38.39,134.82z M37.55,134.77c-0.1,0.25-0.27,0.46-0.5,0.59c-0.33,0.17-0.29,0.59,0.05,0.76
				c0.16,0.08,0.3,0.18,0.35,0.36c0.01,0.03,0.01,0.05,0.01,0.08c-0.55,0.05-1.21-0.21-1.58-0.75c-0.36-0.54-0.41-1.42-0.1-1.88
				c0.19,0.15,0.23,0.34,0.24,0.55c0.02,0.24,0.16,0.39,0.39,0.4c0.08,0.01,0.17-0.03,0.25-0.06c0.17-0.07,0.35-0.15,0.53-0.22
				c0.07-0.02,0.16-0.02,0.24-0.02C37.59,134.58,37.61,134.62,37.55,134.77z"/>
		</g>
		<g>
			<g>
				
					<linearGradient id="SVGID_9_" gradientUnits="userSpaceOnUse" x1="24.4687" y1="305.0678" x2="39.9996" y2="305.0678" gradientTransform="matrix(0.9951 0.0992 -0.0992 0.9951 80.7419 -128.8034)">
					<stop  offset="0" style="stop-color:#664600"/>
					<stop  offset="1" style="stop-color:#FFAB00"/>
				</linearGradient>
				<path style="fill:url(#SVGID_9_);" d="M94.61,177.2c-0.22,2.23-1.3,4.23-3.03,5.65c-1.73,1.42-3.91,2.08-6.14,1.85
					c-2.15-0.21-4.09-1.22-5.5-2.84c-0.35-0.66-0.62-1.37-0.78-2.11c-0.19-0.85-0.25-1.74-0.16-2.65c0.23-2.3,1.37-4.29,3.03-5.65
					c-1.22,1.05-2.06,2.55-2.23,4.28c-0.36,3.56,2.26,6.75,5.82,7.11c0.57,0.06,1.12,0.04,1.66-0.05c0.55-0.09,1.08-0.24,1.58-0.46
					c2.79-1.13,4.88-3.73,5.2-6.94c0.08-0.78,0.05-1.56-0.09-2.3C94.53,174.37,94.75,175.78,94.61,177.2z"/>
				
					<linearGradient id="SVGID_10_" gradientUnits="userSpaceOnUse" x1="31.0978" y1="301.9774" x2="47.1333" y2="301.9774" gradientTransform="matrix(0.9951 0.0992 -0.0992 0.9951 80.7419 -128.8034)">
					<stop  offset="0" style="stop-color:#FFAB00"/>
					<stop  offset="1" style="stop-color:#664600"/>
				</linearGradient>
				<path style="fill:url(#SVGID_10_);" d="M94.07,175.39c-0.32,3.21-2.41,5.81-5.2,6.94c2.08-0.91,3.63-2.89,3.87-5.31
					c0.36-3.56-2.26-6.75-5.82-7.11c-1.34-0.13-2.62,0.15-3.72,0.75c0,0,0,0,0,0c-0.41,0.22-0.8,0.49-1.15,0.79c0,0,0,0-0.01,0.01
					c-1.66,1.36-2.8,3.35-3.03,5.65c-0.09,0.91-0.03,1.81,0.16,2.65c0.17,0.74,0.43,1.45,0.78,2.11c-0.05-0.06-0.1-0.12-0.15-0.18
					c-0.93-1.13-1.53-2.45-1.77-3.86c-0.13-0.74-0.16-1.51-0.08-2.28c0.22-2.23,1.3-4.23,3.03-5.65c1.73-1.42,3.91-2.08,6.14-1.85
					c2.23,0.22,4.23,1.3,5.65,3.03c0.36,0.43,0.66,0.9,0.92,1.38c0.11,0.21,0.22,0.43,0.31,0.65
					C94.12,173.83,94.15,174.6,94.07,175.39z"/>
			</g>
			<g>
				<path style="fill:#7DCE3E;" d="M90.17,176.65c-0.05-0.12-0.12-0.23-0.21-0.32c-0.21-0.21-0.53-0.32-0.81-0.23
					c1.2-0.38,1-2.3-0.16-2.57c-0.5-0.12-1.07,0.13-1.32,0.58c0.19-0.41,0.1-0.92-0.18-1.28c-0.27-0.36-0.71-0.57-1.15-0.64
					c-0.59-0.09-1.23,0.08-1.65,0.5c-0.42,0.42-0.58,1.1-0.34,1.65c-0.29-0.53-0.98-0.79-1.55-0.58c-0.56,0.21-0.92,0.86-0.79,1.45
					c0.03,0.13,0.08,0.26,0.16,0.38c0.19,0.27,0.53,0.41,0.86,0.5c-0.49-0.08-0.99,0.23-1.2,0.68c-0.2,0.45-0.11,1,0.17,1.4
					c0.31,0.46,0.87,0.75,1.43,0.73c0.14,0,0.27-0.02,0.4,0c0.14,0.02,0.43,0.04,0.48,0.17c0.13-0.18-0.28-1.3-0.38-1.3
					c0,0,0.63,0.15,0.79-0.05c-0.01-0.52-0.07-1.03-0.2-1.52c0.17,0.48,0.34,0.96,0.51,1.44c0.02,0.06,0.04,0.11,0.07,0.16
					c0.12,0.16,0.35,0.19,0.55,0.2c0.04-1.02,0.09-2.05,0.13-3.07c0.11,1.03,0.21,2.06,0.32,3.09c0.23,0.01,0.49,0.01,0.66-0.15
					c0.1-0.1,0.15-0.24,0.2-0.37c0.17-0.42,0.44-0.81,0.77-1.12c-0.23,0.44-0.43,0.9-0.59,1.37c0.29,0.12,1.02-0.1,1.07-0.11
					c-0.02,0.03-0.32,0.58-0.38,0.78c-0.09,0.29-0.14,0.61-0.07,0.8c0.17-0.24,0.58-0.31,0.87-0.32c0.45,0,0.9-0.2,1.21-0.53
					c0.31-0.33,0.47-0.79,0.45-1.24C90.27,176.97,90.24,176.8,90.17,176.65z"/>
				<path style="fill:#7DCE3E;" d="M84.56,178.28c0.96,0.45,1.91,0.42,2.87,0.03c-0.04,0.12-0.07,0.23-0.11,0.33
					c-0.08,0.22-0.12,0.45-0.11,0.68c0.01,0.36,0,0.73,0,1.09c0,0.23-0.11,0.34-0.34,0.34c-0.59,0-1.18,0-1.77,0
					c-0.23,0-0.34-0.11-0.34-0.34c0-0.44,0-0.87,0-1.31c0-0.1-0.02-0.21-0.05-0.31C84.68,178.63,84.62,178.46,84.56,178.28z"/>
			</g>
		</g>
	</g>
</g>
<path d="M182,179.69c-0.01-0.03-0.02-0.05-0.03-0.07C181.98,179.63,181.99,179.65,182,179.69z"/>
<line style="fill:none;" x1="186.36" y1="181.36" x2="186.36" y2="181.36"/>
<line style="fill:none;" x1="181.88" y1="177.67" x2="181.88" y2="177.67"/>
<g>
	<g>
		<path style="fill:#4C4C4C;" d="M43.49,126.19l-0.01,0.88l-2.27-0.02l-0.01,1.39l1.74,0.02l-0.01,0.86l-1.74-0.02l-0.02,2.3
			l-1.09-0.01l0.05-5.44L43.49,126.19z"/>
		<path style="fill:#4C4C4C;" d="M46.65,131.35c-0.42-0.24-0.76-0.58-1-1c-0.25-0.43-0.37-0.91-0.36-1.44c0-0.53,0.13-1,0.39-1.43
			c0.25-0.42,0.59-0.75,1.02-0.98c0.43-0.24,0.9-0.35,1.41-0.35c0.51,0,0.98,0.13,1.4,0.37c0.42,0.24,0.75,0.58,1,1
			s0.36,0.9,0.36,1.43c0,0.54-0.13,1.01-0.38,1.43c-0.25,0.42-0.59,0.75-1.02,0.98c-0.43,0.24-0.9,0.35-1.41,0.35
			C47.54,131.72,47.07,131.6,46.65,131.35z M48.92,130.54c0.25-0.15,0.45-0.35,0.59-0.63c0.14-0.27,0.22-0.59,0.22-0.96
			c0-0.36-0.06-0.68-0.2-0.96c-0.14-0.27-0.33-0.49-0.58-0.63c-0.25-0.15-0.54-0.22-0.86-0.23c-0.33,0-0.62,0.07-0.87,0.21
			c-0.25,0.14-0.45,0.35-0.59,0.62c-0.14,0.27-0.22,0.59-0.22,0.95c0,0.36,0.06,0.68,0.2,0.96c0.14,0.28,0.33,0.49,0.58,0.64
			c0.25,0.15,0.54,0.23,0.87,0.23S48.67,130.68,48.92,130.54z"/>
		<path style="fill:#4C4C4C;" d="M54.07,131.42c-0.42-0.24-0.76-0.58-1-1c-0.25-0.43-0.37-0.9-0.36-1.44c0-0.53,0.13-1,0.39-1.43
			c0.25-0.42,0.59-0.75,1.02-0.98c0.43-0.24,0.9-0.35,1.41-0.35c0.51,0,0.98,0.13,1.4,0.37c0.42,0.24,0.75,0.58,1,1
			c0.24,0.43,0.36,0.9,0.36,1.43c0,0.54-0.13,1.01-0.38,1.43c-0.25,0.42-0.59,0.75-1.02,0.98c-0.43,0.24-0.9,0.35-1.41,0.35
			C54.96,131.79,54.5,131.67,54.07,131.42z M56.35,130.61c0.25-0.15,0.45-0.36,0.59-0.63c0.14-0.27,0.22-0.59,0.22-0.96
			c0-0.36-0.06-0.68-0.2-0.96c-0.14-0.27-0.33-0.49-0.58-0.63c-0.25-0.15-0.54-0.22-0.86-0.23c-0.33,0-0.62,0.07-0.87,0.21
			c-0.25,0.14-0.45,0.35-0.59,0.62c-0.14,0.27-0.22,0.59-0.22,0.95c0,0.36,0.06,0.68,0.2,0.96c0.14,0.28,0.33,0.49,0.58,0.64
			c0.25,0.15,0.54,0.23,0.87,0.23C55.81,130.82,56.1,130.75,56.35,130.61z"/>
		<path style="fill:#4C4C4C;" d="M63.83,126.71c0.43,0.23,0.76,0.55,1,0.96c0.23,0.42,0.35,0.9,0.34,1.44
			c0,0.55-0.13,1.02-0.37,1.43c-0.24,0.41-0.58,0.72-1.01,0.94c-0.44,0.22-0.94,0.33-1.51,0.32l-1.9-0.02l0.05-5.44l1.9,0.02
			C62.89,126.37,63.4,126.49,63.83,126.71z M63.57,130.42c0.31-0.31,0.47-0.75,0.48-1.31c0.01-0.57-0.15-1.01-0.45-1.33
			c-0.31-0.32-0.75-0.49-1.32-0.49l-0.77-0.01l-0.03,3.59l0.77,0.01C62.81,130.88,63.26,130.73,63.57,130.42z"/>
		<path style="fill:#4C4C4C;" d="M73.88,126.8c0.43,0.23,0.76,0.55,1,0.96c0.23,0.41,0.35,0.9,0.34,1.44c0,0.55-0.13,1.02-0.37,1.43
			c-0.24,0.41-0.58,0.72-1.01,0.94c-0.44,0.22-0.94,0.33-1.51,0.32l-1.9-0.02l0.05-5.44l1.9,0.02
			C72.95,126.46,73.45,126.58,73.88,126.8z M73.63,130.51c0.31-0.31,0.47-0.75,0.48-1.31c0.01-0.57-0.15-1.01-0.46-1.33
			c-0.31-0.32-0.75-0.49-1.32-0.49l-0.77-0.01l-0.03,3.59l0.77,0.01C72.87,130.97,73.31,130.82,73.63,130.51z"/>
		<path style="fill:#4C4C4C;" d="M78.46,127.39l-0.01,1.36l1.83,0.02l-0.01,0.86l-1.83-0.02l-0.01,1.44l2.06,0.02l-0.01,0.89
			l-3.16-0.03l0.05-5.45l3.16,0.03l-0.01,0.89L78.46,127.39z"/>
		<path style="fill:#4C4C4C;" d="M83.88,131.13l1.79,0.02l-0.01,0.86l-2.88-0.03l0.05-5.44l1.09,0.01L83.88,131.13z"/>
		<path style="fill:#4C4C4C;" d="M88.8,126.61l-0.05,5.44l-1.09-0.01l0.05-5.44L88.8,126.61z"/>
		<path style="fill:#4C4C4C;" d="M96.07,126.67l-2.04,5.42l-1.32-0.01l-1.94-5.46l1.17,0.01l1.46,4.34l1.53-4.31L96.07,126.67z"/>
		<path style="fill:#4C4C4C;" d="M99.12,127.58l-0.01,1.36l1.83,0.02l-0.01,0.86l-1.83-0.02l-0.01,1.44l2.06,0.02l-0.01,0.89
			l-3.16-0.03l0.05-5.45l3.16,0.03l-0.01,0.89L99.12,127.58z"/>
		<path style="fill:#4C4C4C;" d="M106.24,132.2l-1.18-2.13l-0.51,0l-0.02,2.12l-1.09-0.01l0.05-5.44l2.04,0.02
			c0.42,0,0.78,0.08,1.07,0.23c0.29,0.15,0.51,0.35,0.66,0.61c0.15,0.25,0.22,0.54,0.21,0.85c0,0.36-0.11,0.68-0.32,0.97
			c-0.21,0.29-0.52,0.48-0.93,0.59l1.28,2.22L106.24,132.2z M104.56,129.25l0.91,0.01c0.3,0,0.52-0.07,0.66-0.21
			c0.15-0.14,0.22-0.34,0.22-0.59c0-0.25-0.07-0.44-0.21-0.58c-0.14-0.14-0.36-0.21-0.66-0.21l-0.91-0.01L104.56,129.25z"/>
		<path style="fill:#4C4C4C;" d="M114.11,126.84l-1.87,3.53l-0.02,1.89l-1.09-0.01l0.02-1.89l-1.81-3.56l1.23,0.01l1.15,2.5
			l1.18-2.47L114.11,126.84z"/>
	</g>
</g>
<g>
	<g>
		<path style="fill:#C30362;" d="M155.93,118.64c-0.18,0.18-0.28,0.39-0.29,0.62c0.53-0.04,0.99,0.05,1.39,0.28
			c0.4,0.22,0.77,0.51,1.11,0.86c0.29,0.29,0.54,0.66,0.74,1.1c0.21,0.44,0.12,0.84-0.27,1.22l-2,1.97
			c-0.27,0.26-0.51,0.38-0.72,0.35c-0.22-0.03-0.48-0.2-0.78-0.51l-1.74-1.77c-0.24-0.24-0.48-0.24-0.73,0
			c-0.25,0.25-0.26,0.49-0.02,0.73l1.99,2.02c0.34,0.35,0.71,0.55,1.09,0.6c0.38,0.05,0.77-0.11,1.14-0.48l2.3-2.26
			c0.63-0.62,0.85-1.27,0.68-1.97c-0.18-0.7-0.56-1.35-1.16-1.96c-0.47-0.48-0.95-0.81-1.45-1
			C156.7,118.22,156.28,118.3,155.93,118.64z"/>
		<path style="fill:#C30362;" d="M153.43,120.77c0.13-0.13,0.2-0.29,0.2-0.47c0-0.18-0.06-0.34-0.19-0.47
			c-0.13-0.13-0.29-0.2-0.47-0.21c-0.18,0-0.34,0.06-0.48,0.19c-0.13,0.13-0.19,0.28-0.19,0.47c0,0.19,0.06,0.35,0.19,0.48
			c0.13,0.13,0.28,0.19,0.47,0.19C153.14,120.96,153.3,120.9,153.43,120.77z"/>
		<path style="fill:#C30362;" d="M154.64,119.58c0.13-0.13,0.2-0.29,0.2-0.47c0-0.18-0.06-0.34-0.19-0.47
			c-0.13-0.13-0.29-0.2-0.47-0.21c-0.18,0-0.34,0.06-0.48,0.19c-0.13,0.13-0.19,0.28-0.19,0.47c0,0.19,0.06,0.35,0.19,0.48
			c0.13,0.13,0.28,0.19,0.47,0.19C154.36,119.76,154.51,119.7,154.64,119.58z"/>
		<path style="fill:#C30362;" d="M165.21,120.18c0,0.18,0,0.37-0.01,0.57c-0.13-0.07-0.25-0.14-0.36-0.23
			c0.03-0.02,0.07-0.05,0.1-0.08L165.21,120.18z"/>
		<path style="fill:#C30362;" d="M166,117.9c-0.14,0.14-0.21,0.3-0.21,0.48c0,0.19,0.06,0.35,0.19,0.48
			c0.13,0.13,0.28,0.19,0.47,0.19c0.19,0,0.35-0.07,0.49-0.2c0.13-0.13,0.19-0.28,0.19-0.47c0-0.19-0.06-0.34-0.19-0.47
			c-0.13-0.13-0.29-0.2-0.48-0.2C166.28,117.72,166.12,117.78,166,117.9z"/>
		<path style="fill:#C30362;" d="M172.36,97.31c0.22-0.05,0.45-0.08,0.68-0.08l0.11,0.01"/>
		<path style="fill:#C30362;" d="M172.43,99.48c-0.12,0.11-0.21,0.25-0.27,0.4c-0.06,0.15-0.09,0.27-0.08,0.35
			c0.19-0.04,0.43-0.01,0.7,0.08c0.27,0.09,0.53,0.25,0.76,0.49l2.65,2.7c0.21,0.21,0.37,0.39,0.48,0.53
			c0.11,0.14,0.18,0.29,0.21,0.45c0.02,0.16-0.04,0.31-0.18,0.45l-0.54,0.53l0,0l-1.47,1.45c-0.06-0.55-0.35-1.08-0.85-1.6
			c-0.47-0.48-0.98-0.78-1.51-0.89c-0.54-0.11-1.05-0.08-1.54,0.09c-0.49,0.17-0.92,0.44-1.29,0.8c-0.37,0.36-0.63,0.77-0.79,1.22
			c-0.16,0.46-0.23,0.9-0.21,1.33c0.02,0.43,0.09,0.82,0.22,1.16l-2.04-2.08c-0.33-0.33-0.62-0.51-0.89-0.52
			c-0.27-0.02-0.49,0.07-0.67,0.25c-0.12,0.11-0.21,0.25-0.27,0.4c-0.06,0.15-0.09,0.27-0.08,0.35c0.19-0.04,0.43-0.01,0.7,0.08
			c0.27,0.09,0.53,0.25,0.76,0.49l3.61,3.68l-0.95,0.93l-1.21,1.19c-0.1-0.42-0.36-0.85-0.77-1.27l-2.9-2.95
			c-0.33-0.33-0.62-0.51-0.89-0.52c-0.27-0.02-0.49,0.07-0.67,0.25c-0.12,0.11-0.21,0.25-0.27,0.4c-0.06,0.15-0.09,0.27-0.08,0.35
			c0.19-0.04,0.43-0.01,0.7,0.08c0.27,0.09,0.53,0.25,0.76,0.49l2.65,2.7c0.21,0.21,0.37,0.39,0.48,0.53
			c0.11,0.14,0.18,0.29,0.21,0.45c0.02,0.16-0.04,0.31-0.18,0.45l-0.54,0.53l0,0l-0.82,0.81c-0.09,0.09-0.22,0.09-0.37-0.02
			c-0.15-0.1-0.32-0.25-0.52-0.45l-2.31-2.35c-0.25-0.25-0.49-0.25-0.74-0.01c-0.25,0.25-0.25,0.5,0,0.75l2.88,2.93
			c-0.09,0.21-0.22,0.4-0.38,0.57l-0.47,0.47l-0.26,0.25c-0.24,0.23-0.52,0.32-0.84,0.24c-0.32-0.07-0.61-0.24-0.87-0.5l-2.95-3
			c-0.33-0.33-0.62-0.51-0.89-0.52c-0.27-0.02-0.49,0.07-0.67,0.25c-0.12,0.11-0.21,0.25-0.27,0.4c-0.06,0.15-0.09,0.27-0.08,0.35
			c0.19-0.04,0.43-0.01,0.7,0.08c0.27,0.09,0.53,0.25,0.76,0.49l2.6,2.65c0.53,0.53,1.05,0.81,1.55,0.85
			c0.51,0.04,0.94-0.12,1.31-0.48l0.47-0.47l0.47-0.47c0.24-0.27,0.4-0.57,0.48-0.89c0.17-0.03,0.33-0.08,0.49-0.16
			c0.15-0.08,0.32-0.21,0.51-0.39l0.79-0.78l0,0l0.47-0.47c0.26-0.26,0.43-0.55,0.49-0.89c0.17-0.03,0.33-0.09,0.48-0.17
			c0.15-0.08,0.32-0.21,0.5-0.38l0.77-0.76l4.42-4.34c0.38-0.37,0.62-0.75,0.74-1.13c0.17-0.03,0.33-0.09,0.48-0.17
			c0.15-0.08,0.32-0.21,0.5-0.38l1.14-1.12l0,0l0.47-0.47c0.37-0.36,0.53-0.79,0.51-1.3c-0.03-0.51-0.3-1.03-0.82-1.57l-2.9-2.95
			c-0.33-0.33-0.62-0.51-0.89-0.52C172.84,99.22,172.62,99.3,172.43,99.48z M173.62,107.2c0.04,0.46-0.17,0.92-0.63,1.37l-2.4,2.36
			l-1.27-1.29c-0.18-0.56-0.25-1.18-0.22-1.85c0.04-0.67,0.29-1.24,0.77-1.71c0.27-0.27,0.59-0.47,0.96-0.6
			c0.37-0.13,0.75-0.16,1.14-0.09c0.39,0.07,0.75,0.27,1.08,0.61C173.39,106.34,173.58,106.74,173.62,107.2z"/>
		<path style="fill:#C30362;" d="M174.6,97.35c-0.12,0.11-0.21,0.25-0.27,0.4c-0.06,0.15-0.09,0.27-0.08,0.35
			c0.19-0.04,0.43-0.01,0.7,0.08c0.27,0.09,0.53,0.25,0.76,0.49l3.66,3.73c0.18,0.18,0.33,0.3,0.46,0.34
			c0.13,0.05,0.27-0.01,0.43-0.17c0.16-0.16,0.22-0.3,0.18-0.44c-0.04-0.13-0.15-0.29-0.32-0.47l-3.96-4.03
			c-0.33-0.33-0.62-0.51-0.89-0.52C175.01,97.09,174.78,97.17,174.6,97.35z"/>
		<path style="fill:#C30362;" d="M190.44,93.89c-0.13,0.13-0.19,0.28-0.19,0.47c0,0.19,0.06,0.35,0.19,0.48
			c0.13,0.13,0.28,0.19,0.47,0.19c0.19,0,0.34-0.06,0.47-0.19c0.13-0.13,0.2-0.29,0.2-0.47c0-0.18-0.06-0.34-0.19-0.47
			c-0.13-0.13-0.29-0.2-0.47-0.21C190.73,93.69,190.57,93.76,190.44,93.89z"/>
		<path style="fill:#C30362;" d="M194.28,91.61l-0.15,0.15c0-0.1,0.01-0.21,0.02-0.32C194.2,91.49,194.24,91.55,194.28,91.61z"/>
		<path style="fill:#C30362;" d="M191.65,92.69c-0.13,0.13-0.19,0.28-0.19,0.47c0,0.19,0.06,0.35,0.19,0.48
			c0.13,0.13,0.28,0.19,0.47,0.19c0.19,0,0.34-0.06,0.47-0.19c0.13-0.13,0.2-0.29,0.2-0.47c0-0.18-0.06-0.34-0.19-0.47
			c-0.13-0.13-0.29-0.2-0.47-0.21C191.94,92.5,191.79,92.56,191.65,92.69z"/>
		<path style="fill:#C30362;" d="M194.15,91.44c-0.01,0.11-0.02,0.22-0.02,0.32l0.15-0.15C194.24,91.55,194.2,91.49,194.15,91.44z"
			/>
		<path style="fill:#C30362;" d="M192.39,83.19c-0.46,0.21-0.88,0.48-1.24,0.84c-0.4,0.39-0.69,0.82-0.89,1.3
			c-0.19,0.47-0.29,0.89-0.28,1.24c-0.3-0.06-0.56,0.01-0.79,0.23c-0.1,0.1-0.18,0.21-0.23,0.34c-0.05,0.13-0.08,0.24-0.09,0.33
			c0.19-0.01,0.4,0.01,0.63,0.07s0.41,0.16,0.55,0.3l1.99,2.02l-0.82,0.8l-0.82,0.81c-0.09,0.09-0.22,0.09-0.37-0.02
			c-0.15-0.1-0.32-0.25-0.52-0.45l-2.31-2.35c-0.25-0.25-0.49-0.25-0.74-0.01c-0.25,0.25-0.25,0.5,0,0.75l2.88,2.93
			c-0.09,0.21-0.21,0.4-0.38,0.57l-0.47,0.47l0,0l-0.82,0.8l-3.92-3.98c-0.33-0.33-0.62-0.51-0.89-0.52
			c-0.27-0.02-0.49,0.07-0.68,0.25c-0.12,0.11-0.21,0.25-0.27,0.39c-0.06,0.15-0.08,0.26-0.07,0.35c0.19-0.04,0.43-0.01,0.7,0.08
			c0.27,0.09,0.53,0.25,0.76,0.49l3.68,3.74c0.32,0.33,0.59,0.65,0.8,0.97c0.21,0.32,0.31,0.68,0.31,1.07c0,0.4-0.2,0.79-0.6,1.19
			c-0.26,0.25-0.56,0.46-0.9,0.61c-0.34,0.16-0.72,0.21-1.12,0.16c-0.4-0.06-0.8-0.28-1.18-0.67c-0.41-0.42-0.68-0.84-0.8-1.26
			c-0.13-0.43-0.18-0.76-0.17-1c-0.23,0.05-0.42,0.15-0.55,0.28c-0.19,0.19-0.28,0.45-0.27,0.76c0.01,0.32,0.11,0.65,0.29,1
			c0.18,0.35,0.4,0.66,0.68,0.94c0.37,0.38,0.8,0.65,1.28,0.82c0.48,0.17,1,0.18,1.57,0.05c0.56-0.14,1.12-0.48,1.67-1.02
			c0.72-0.7,1.07-1.41,1.07-2.13c0-0.72-0.32-1.43-0.95-2.14c0.27-0.07,0.54-0.24,0.82-0.51l0.14-0.14l0,0l0.47-0.47
			c0.24-0.27,0.4-0.57,0.48-0.89c0.17-0.03,0.33-0.08,0.49-0.16c0.15-0.08,0.32-0.21,0.51-0.39l0.79-0.78l3.8-3.74
			c0.67-0.65,0.91-1.31,0.73-1.96c-0.18-0.65-0.49-1.21-0.95-1.67c-0.48-0.49-0.99-0.78-1.52-0.86
			C193.35,82.93,192.85,82.99,192.39,83.19z M195.28,85.78c0.12,0.48-0.07,0.96-0.57,1.45l-1.91,1.88l-2-2.04
			c-0.07-0.07-0.13-0.12-0.16-0.15c-0.04-0.26,0.02-0.6,0.17-1.01c0.15-0.42,0.4-0.79,0.74-1.12c0.27-0.26,0.57-0.47,0.92-0.62
			c0.35-0.15,0.71-0.21,1.09-0.16c0.38,0.05,0.75,0.24,1.08,0.59C194.94,84.91,195.15,85.3,195.28,85.78z"/>
		<path style="fill:#C30362;" d="M199.63,74.64c0.13-0.13,0.2-0.29,0.2-0.47c0-0.18-0.06-0.34-0.19-0.47
			c-0.13-0.13-0.29-0.2-0.47-0.21c-0.18,0-0.34,0.06-0.48,0.19c-0.13,0.13-0.19,0.28-0.19,0.47c0,0.19,0.06,0.35,0.19,0.48
			c0.13,0.13,0.28,0.19,0.47,0.19C199.34,74.82,199.5,74.76,199.63,74.64z"/>
		<path style="fill:#C30362;" d="M199.54,75.78c-0.18,0.18-0.28,0.39-0.29,0.62c0.53-0.04,0.99,0.05,1.39,0.28
			c0.4,0.22,0.77,0.51,1.11,0.86c0.32,0.32,0.57,0.69,0.76,1.12c0.19,0.42,0.1,0.82-0.29,1.2l-0.56,0.55l0,0l-0.71,0.69l-2.06-2.1
			c-0.49-0.49-0.96-0.7-1.42-0.63c-0.46,0.08-0.93,0.35-1.42,0.83c-0.35,0.35-0.59,0.69-0.72,1.02c-0.12,0.33-0.1,0.7,0.06,1.13
			c0.16,0.42,0.52,0.91,1.06,1.46c0.67,0.68,1.28,1.07,1.82,1.16c0.54,0.09,1.09-0.13,1.65-0.68l0.87-0.88l0.64,0.67
			c0.25,0.25,0.36,0.55,0.33,0.89c-0.02,0.34-0.19,0.67-0.49,0.96c-0.15,0.15-0.34,0.29-0.58,0.44c0.19,0.05,0.42,0.02,0.69-0.06
			c0.27-0.09,0.53-0.25,0.78-0.49c0.32-0.32,0.5-0.64,0.54-0.97c0.04-0.33-0.01-0.63-0.14-0.9c-0.13-0.27-0.29-0.5-0.47-0.69
			l-0.56-0.57l0.71-0.69l0,0l0.5-0.49c0.63-0.62,0.85-1.27,0.68-1.97c-0.18-0.7-0.56-1.35-1.16-1.96c-0.47-0.48-0.95-0.81-1.45-1
			C200.32,75.36,199.89,75.44,199.54,75.78z M200.22,81.83l-0.58,0.57c-0.44,0.44-0.88,0.57-1.31,0.4
			c-0.43-0.17-0.81-0.42-1.13-0.75c-0.94-0.95-1.11-1.73-0.51-2.31c0.5-0.49,1.05-0.43,1.66,0.2L200.22,81.83z"/>
		<path style="fill:#C30362;" d="M198.41,75.83c0.13-0.13,0.2-0.29,0.2-0.47c0-0.18-0.06-0.34-0.19-0.47
			c-0.13-0.13-0.29-0.2-0.47-0.21c-0.18,0-0.34,0.06-0.48,0.19c-0.13,0.13-0.19,0.28-0.19,0.47c0,0.19,0.06,0.35,0.19,0.48
			c0.13,0.13,0.28,0.19,0.47,0.19C198.13,76.02,198.29,75.96,198.41,75.83z"/>
	</g>
</g>
<g>
	<path style="fill:#010101;" d="M68.13,105.96c0,0.18,0,0.39,0,0.62c0,0.41-0.01,0.9-0.03,1.48c-0.33,3.9-2.51,8.75-4.81,11.35
		c0,0,0,0,0-0.01c-0.46-0.94-0.69-2.11-0.69-3.48v-10.01c0-0.67,0.31-1,0.93-1.02h3.58C67.79,104.91,68.13,105.25,68.13,105.96z"/>
	<path style="fill:#D00469;" d="M78.77,107.32c-0.03,0.14-0.05,0.29-0.09,0.45l0.01,0c-0.38,2.12-1.77,7.14-2,7.56l0,0c0,0,0,0,0,0
		c-0.03,0.09-0.98,2.47-2.58,4.24c0,0,0,0,0,0c-0.13,0.14-0.27,0.28-0.41,0.42c-0.04,0.04-0.07,0.07-0.11,0.1v-14
		c0-0.8,0.36-1.2,1.07-1.2h3.2c0.71,0,1.07,0.36,1.09,1.09C78.96,106.19,78.9,106.64,78.77,107.32z"/>
	<path d="M99.99,110.06c-0.01,0.18-0.02,0.42-0.04,0.68c0.03-0.16,0.05-0.33,0.05-0.5C100,110.18,100,110.12,99.99,110.06z
		 M98.84,116.33c0.2-0.41,0.37-0.82,0.47-1.21C99.19,115.51,99.03,115.92,98.84,116.33z M97.18,118.93c0,0,0.01,0.01,0.01,0.01
		c0.69-0.87,1.24-1.75,1.64-2.6C98.34,117.35,97.63,118.34,97.18,118.93z"/>
	<path style="fill:#01BECB;" d="M62.59,115.93v-2.8c-0.12,0.56-0.46,2-1.03,2.88c-0.67,1.03-2.03,1.67-2.87,1.49
		c-1.05-0.23-1.6-0.96-1.6-2.91c0-0.64,0.04-1.58,0.09-2.8c0.05-1.22,0.09-1.98,0.09-2.31c0-1.51-0.51-2.74-1.51-3.69
		c-1-0.93-2.34-1.4-4-1.4c-2.83,0-4.96,1.12-6.39,3.36c-0.02,0.03-0.05,0.05-0.08,0.05c-0.01,0-0.01,0-0.02,0
		c-0.05-0.01-0.09-0.06-0.08-0.12c0.17-0.89,0.25-1.46,0.25-1.68c-0.02-0.73-0.38-1.09-1.09-1.09h-3.2c-0.71,0-1.07,0.4-1.07,1.2
		v14.44c0,0.76,0.35,1.14,1.04,1.14h3.27c0.71,0,1.05-0.4,1.05-1.2v-0.93c0-1.54,0.16-3.09,0.47-4.65s0.8-2.92,1.47-4.09
		c0.67-1.16,1.45-1.74,2.33-1.74c1.27,0,1.91,0.82,1.91,2.45c0,0.56-0.02,1.42-0.05,2.54c-0.04,1.14-0.05,2.02-0.05,2.63
		c0,1.51,0.56,2.78,1.69,3.85c1.13,1.07,2.53,1.62,4.18,1.62c2.23,0,4.32-1.05,5.67-2.51c0.06-0.06,0.12-0.13,0.18-0.2
		c0.02-0.02,0.04-0.04,0.06-0.07C62.83,118.47,62.59,117.3,62.59,115.93z"/>
	<path style="fill:none;" d="M68.13,106.58c0.02,0.47,0.01,0.97-0.03,1.48"/>
	<path style="fill:none;" d="M63.29,119.41c-0.08,0.09-0.16,0.17-0.24,0.26"/>
	<path style="fill:#010101;" d="M74.12,119.58c1.15-1.23,2.01-2.65,2.58-4.24C76.67,115.43,75.72,117.81,74.12,119.58z"/>
	<path style="fill:#8B7B11;" d="M69.55,117.5c-1.11-0.02-1.67-0.91-1.67-2.69c0-0.16,0.04-1.45,0.13-3.85
		c0.04-1.12,0.07-2.09,0.09-2.89c-0.33,3.9-2.51,8.75-4.81,11.35c0.88,1.8,2.57,2.77,4.99,2.77c1.9,0,3.55-0.58,4.94-1.74
		c0.13-0.11,0.26-0.22,0.38-0.34v-6.7c-0.38,1-0.92,1.91-1.65,2.75C71.17,117.04,70.37,117.5,69.55,117.5z"/>
	<path style="fill:#010101;" d="M65.41,96.55c-1.67,0-2.89,1.07-2.89,2.67c0,1.74,1.09,2.87,2.74,2.87c1.83,0,2.98-1.16,2.98-2.91
		C68.24,97.49,67.06,96.55,65.41,96.55z"/>
	<path style="fill:none;" d="M73.22,120.45c0.13-0.11,0.26-0.22,0.38-0.33c0.18-0.17,0.35-0.34,0.52-0.53"/>
	<path style="fill:none;" d="M78.77,107.32c-0.02,0.13-0.04,0.28-0.07,0.46"/>
	<path style="fill:#FFAB00;" d="M95.37,112.94c0,0.04,0,0.08,0.01,0.12c0-0.04,0-0.08,0-0.13
		C95.37,112.94,95.37,112.94,95.37,112.94z M97.18,118.93c-0.11-0.13-0.21-0.27-0.3-0.41c-0.9-1.29-1.4-2.78-1.5-4.48
		c-0.03,1.09-0.26,1.67-0.82,2.32c-0.74,0.84-1.61,1.14-2.36,1.14c-1.07,0-1.6-0.96-1.6-2.91c0-0.64,0.04-1.58,0.09-2.8
		c0.05-1.22,0.09-1.98,0.09-2.31c0-1.51-0.51-2.74-1.51-3.69c-1-0.93-2.34-1.4-4-1.4c-2.85,0-5,1.14-6.43,3.42l-0.15-0.03
		c-0.38,2.12-1.77,7.14-2,7.56l0,0c0,0,0,0,0,0c-0.03,0.09-0.98,2.47-2.58,4.24c0,0,0,0,0,0c-0.13,0.14-0.27,0.28-0.41,0.42
		c-0.04,0.04-0.07,0.07-0.11,0.1v0.44c0,0.76,0.35,1.14,1.04,1.14h3.27c0.71,0,1.05-0.4,1.05-1.2v-0.93c0-1.54,0.16-3.09,0.47-4.65
		c0.31-1.56,0.8-2.92,1.47-4.09c0.67-1.16,1.45-1.74,2.33-1.74c1.27,0,1.91,0.82,1.91,2.45c0,0.56-0.02,1.42-0.05,2.54
		c-0.04,1.14-0.05,2.02-0.05,2.63c0,1.51,0.56,2.78,1.69,3.85c1.13,1.07,2.53,1.62,4.18,1.62c2.33,0,4.51-1.14,5.85-2.71
		c0,0,0-0.01,0.01-0.02c0.01-0.01,0.01-0.02,0.02-0.03c0.14-0.17,0.28-0.33,0.41-0.5c0.69-0.87,1.24-1.75,1.64-2.6
		C98.34,117.35,97.63,118.34,97.18,118.93z"/>
	<path style="fill:none;" d="M96.88,118.52c0.1,0.14,0.2,0.27,0.3,0.41c-0.22,0.29-0.38,0.48-0.43,0.53
		c-0.01,0.01-0.01,0.02-0.01,0.02L96.88,118.52z"/>
	<path style="fill:none;stroke:#94FF9F;stroke-miterlimit:10;" d="M99.31,115.11c-0.1,0.39-0.27,0.81-0.47,1.21
		C99.03,115.92,99.19,115.51,99.31,115.11z"/>
	<path style="fill:#D00469;" d="M111.61,106.9c-1.69-1.67-3.89-2.51-6.61-2.51c-2.49,0-4.56,0.63-6.22,1.89
		c-0.07,0.05-0.14,0.11-0.21,0.17c-0.18,0.15-0.36,0.3-0.53,0.47c-0.57,0.54-1.04,1.12-1.43,1.76c0.36-0.42,0.86-0.69,1.42-0.69
		c0.11,0,0.22,0.01,0.32,0.03c0.89,0.16,1.58,1,1.65,2.03c0,0.06,0.01,0.12,0.01,0.18c0,0.17-0.02,0.34-0.05,0.5
		c-0.11,1.43-0.38,3.78-0.64,4.37v0c0,0,0,0,0,0c-0.1,0.39-0.27,0.81-0.47,1.21c0,0,0,0,0,0.01c-0.4,0.85-0.95,1.73-1.64,2.6
		c0.2,0.26,0.42,0.5,0.66,0.74c1.65,1.67,3.83,2.51,6.56,2.51c3.03,0,5.4-0.91,7.12-2.72c1.73-1.8,2.58-3.91,2.58-6.32
		C114.11,110.65,113.28,108.58,111.61,106.9z M107.46,116.46c-0.65,0.96-1.58,1.44-2.76,1.44c-1.14,0-2.03-0.44-2.69-1.33
		c-0.67-0.87-1-1.93-1-3.18c0-1.24,0.35-2.33,1.04-3.29c0.67-0.96,1.62-1.44,2.83-1.44c1.16,0,2.05,0.4,2.65,1.22
		c0.6,0.82,0.89,1.83,0.89,3.07C108.43,114.33,108.1,115.5,107.46,116.46z"/>
	<path style="fill:#8B7B11;" d="M99.99,110.06c-0.01,0.18-0.02,0.42-0.04,0.68c-0.11,1.43-0.38,3.78-0.64,4.37v0c0,0,0,0,0,0
		c-0.12,0.4-0.28,0.8-0.47,1.21c0,0,0,0,0,0.01c-0.5,1.02-1.2,2-1.65,2.59c-0.11-0.13-0.21-0.27-0.3-0.41
		c-0.9-1.29-1.4-2.78-1.5-4.48c-0.01-0.2-0.02-0.4-0.02-0.61c0-0.12,0-0.24,0.01-0.36c0-0.04,0-0.08,0-0.13
		c0.05-1.24,0.31-2.38,0.77-3.4c0.13-0.3,0.29-0.59,0.46-0.87c0.36-0.42,0.86-0.69,1.42-0.69c0.11,0,0.22,0.01,0.32,0.03
		C99.23,108.19,99.92,109.02,99.99,110.06z"/>
</g>
</svg>
